<svg width="94" height="30" viewBox="0 0 94 30" fill="none" xmlns="http://www.w3.org/2000/svg">
<path d="M37.728 24V7.128H40.008L40.992 10.392V24H37.728ZM49.392 24L39.384 11.04L40.008 7.128L50.016 20.088L49.392 24ZM49.392 24L48.456 20.832V7.128H51.744V24H49.392ZM59.2935 24.264C58.6375 24.264 57.9895 24.176 57.3495 24C56.7255 23.824 56.1495 23.584 55.6215 23.28C55.0935 22.96 54.6375 22.576 54.2535 22.128L56.1255 20.232C56.5255 20.68 56.9895 21.016 57.5175 21.24C58.0455 21.464 58.6295 21.576 59.2695 21.576C59.7815 21.576 60.1655 21.504 60.4215 21.36C60.6935 21.216 60.8295 21 60.8295 20.712C60.8295 20.392 60.6855 20.144 60.3975 19.968C60.1255 19.792 59.7655 19.648 59.3175 19.536C58.8695 19.408 58.3975 19.272 57.9015 19.128C57.4215 18.968 56.9575 18.768 56.5095 18.528C56.0615 18.272 55.6935 17.928 55.4055 17.496C55.1335 17.048 54.9975 16.472 54.9975 15.768C54.9975 15.032 55.1735 14.392 55.5255 13.848C55.8935 13.304 56.4135 12.88 57.0855 12.576C57.7575 12.272 58.5495 12.12 59.4615 12.12C60.4215 12.12 61.2855 12.288 62.0535 12.624C62.8375 12.96 63.4855 13.464 63.9975 14.136L62.1015 16.032C61.7495 15.6 61.3495 15.288 60.9015 15.096C60.4695 14.904 59.9975 14.808 59.4855 14.808C59.0215 14.808 58.6615 14.88 58.4055 15.024C58.1655 15.168 58.0455 15.368 58.0455 15.624C58.0455 15.912 58.1815 16.136 58.4535 16.296C58.7415 16.456 59.1095 16.6 59.5575 16.728C60.0055 16.84 60.4695 16.976 60.9495 17.136C61.4455 17.28 61.9095 17.488 62.3415 17.76C62.7895 18.032 63.1495 18.392 63.4215 18.84C63.7095 19.288 63.8535 19.864 63.8535 20.568C63.8535 21.704 63.4455 22.608 62.6295 23.28C61.8135 23.936 60.7015 24.264 59.2935 24.264ZM68.1576 24V7.584H71.3016V24H68.1576ZM65.4456 15.168V12.408H74.0136V15.168H65.4456ZM81.5244 24.24C80.3084 24.24 79.2284 23.984 78.2844 23.472C77.3404 22.944 76.5884 22.224 76.0284 21.312C75.4844 20.4 75.2124 19.36 75.2124 18.192C75.2124 17.04 75.4764 16.016 76.0044 15.12C76.5484 14.208 77.2844 13.488 78.2124 12.96C79.1404 12.416 80.1724 12.144 81.3084 12.144C82.4284 12.144 83.4124 12.4 84.2604 12.912C85.1244 13.408 85.7964 14.096 86.2764 14.976C86.7724 15.84 87.0204 16.824 87.0204 17.928C87.0204 18.136 87.0044 18.352 86.9724 18.576C86.9564 18.784 86.9164 19.024 86.8524 19.296L77.1084 19.32V16.968L85.3884 16.944L84.1164 17.928C84.0844 17.24 83.9564 16.664 83.7324 16.2C83.5244 15.736 83.2124 15.384 82.7964 15.144C82.3964 14.888 81.9004 14.76 81.3084 14.76C80.6844 14.76 80.1404 14.904 79.6764 15.192C79.2124 15.464 78.8524 15.856 78.5964 16.368C78.3564 16.864 78.2364 17.456 78.2364 18.144C78.2364 18.848 78.3644 19.464 78.6204 19.992C78.8924 20.504 79.2764 20.904 79.7724 21.192C80.2684 21.464 80.8444 21.6 81.5004 21.6C82.0924 21.6 82.6284 21.504 83.1084 21.312C83.5884 21.104 84.0044 20.8 84.3564 20.4L86.2044 22.248C85.6444 22.904 84.9564 23.4 84.1404 23.736C83.3404 24.072 82.4684 24.24 81.5244 24.24ZM89.4448 24V6.648H92.5888V24H89.4448Z" fill="white"/>
<path d="M5.8 0H8.7V3H5.8V0Z" fill="url(#paint0_linear_213_1188)"/>
<path d="M8.7 24H13.05V27H8.7V24Z" fill="url(#paint1_linear_213_1188)"/>
<path d="M20.3 0H23.2V3H20.3V0Z" fill="url(#paint2_linear_213_1188)"/>
<path d="M15.95 24H20.3V27H15.95V24Z" fill="url(#paint3_linear_213_1188)"/>
<path d="M26.1 12V9H23.2V6H20.3V3H17.4V6H11.6V3H8.7V6H5.8V9H2.9V12H0V24H2.9V18H5.8V24H8.7V19.5H20.3V24H23.2V18H26.1V24H29V12H26.1ZM11.6 13.5H8.7V9H11.6V13.5ZM20.3 13.5H17.4V9H20.3V13.5Z" fill="url(#paint4_linear_213_1188)"/>
<defs>
<linearGradient id="paint0_linear_213_1188" x1="6.24305" y1="22.0909" x2="3.72678" y2="1.89421" gradientUnits="userSpaceOnUse">
<stop stop-color="#D593D8"/>
<stop offset="0.302104" stop-color="#E7A4B1"/>
<stop offset="0.938754" stop-color="#B050E9"/>
</linearGradient>
<linearGradient id="paint1_linear_213_1188" x1="6.24305" y1="22.0909" x2="3.72678" y2="1.89421" gradientUnits="userSpaceOnUse">
<stop stop-color="#D593D8"/>
<stop offset="0.302104" stop-color="#E7A4B1"/>
<stop offset="0.938754" stop-color="#B050E9"/>
</linearGradient>
<linearGradient id="paint2_linear_213_1188" x1="6.24305" y1="22.0909" x2="3.72678" y2="1.89421" gradientUnits="userSpaceOnUse">
<stop stop-color="#D593D8"/>
<stop offset="0.302104" stop-color="#E7A4B1"/>
<stop offset="0.938754" stop-color="#B050E9"/>
</linearGradient>
<linearGradient id="paint3_linear_213_1188" x1="6.24305" y1="22.0909" x2="3.72678" y2="1.89421" gradientUnits="userSpaceOnUse">
<stop stop-color="#D593D8"/>
<stop offset="0.302104" stop-color="#E7A4B1"/>
<stop offset="0.938754" stop-color="#B050E9"/>
</linearGradient>
<linearGradient id="paint4_linear_213_1188" x1="6.24305" y1="22.0909" x2="3.72678" y2="1.89421" gradientUnits="userSpaceOnUse">
<stop stop-color="#D593D8"/>
<stop offset="0.302104" stop-color="#E7A4B1"/>
<stop offset="0.938754" stop-color="#B050E9"/>
</linearGradient>
</defs>
</svg>
