<svg width="13" height="13" viewBox="0 0 13 13" fill="none" xmlns="http://www.w3.org/2000/svg">
<path d="M11.0962 11.0962C9.87721 12.3152 8.22391 13 6.5 13C4.77609 13 3.12279 12.3152 1.90381 11.0962C0.68482 9.87721 0 8.22391 0 6.5C0 4.77609 0.68482 3.12279 1.90381 1.90381C3.12279 0.68482 4.77609 0 6.5 0C8.22391 0 9.87721 0.68482 11.0962 1.90381C12.3152 3.12279 13 4.77609 13 6.5C13 8.22391 12.3152 9.87721 11.0962 11.0962Z" fill="white"/>
<path fill-rule="evenodd" clip-rule="evenodd" d="M6.5 13C8.22391 13 9.87721 12.3152 11.0962 11.0962C12.3152 9.87721 13 8.22391 13 6.5C13 4.77609 12.3152 3.12279 11.0962 1.90381C9.87721 0.68482 8.22391 0 6.5 0C4.77609 0 3.12279 0.68482 1.90381 1.90381C0.68482 3.12279 0 4.77609 0 6.5C0 8.22391 0.68482 9.87721 1.90381 11.0962C3.12279 12.3152 4.77609 13 6.5 13ZM9.51194 5.44944C9.65994 5.2962 9.74184 5.09096 9.73998 4.87792C9.73813 4.66489 9.65268 4.4611 9.50204 4.31046C9.3514 4.15982 9.14761 4.07437 8.93458 4.07251C8.72154 4.07066 8.5163 4.15256 8.36306 4.30056L5.6875 6.97613L4.63694 5.92556C4.4837 5.77756 4.27846 5.69566 4.06542 5.69752C3.85239 5.69937 3.6486 5.78482 3.49796 5.93546C3.34732 6.0861 3.26187 6.28989 3.26001 6.50292C3.25816 6.71596 3.34006 6.9212 3.48806 7.07444L5.11306 8.69944C5.26543 8.85176 5.47205 8.93733 5.6875 8.93733C5.90295 8.93733 6.10957 8.85176 6.26194 8.69944L9.51194 5.44944Z" fill="#2A5FF2"/>
</svg>
